<svg xmlns="http://www.w3.org/2000/svg" xmlns:xlink="http://www.w3.org/1999/xlink" version="1.1" x="0px" y="0px" viewBox="0 0 100 125" enable-background="new 0 0 100 100" xml:space="preserve"><path fill="#000000" d="M80.562,48.451h-9.547c0.403-0.186,0.684-0.592,0.684-1.064v-2.951c0.869-0.217,1.519-1.004,1.519-1.942  V26.576c0-1.736-1.856-3.101-4.478-3.42v-0.829c0-0.648-0.525-1.172-1.174-1.172s-1.172,0.524-1.172,1.172v0.823  c-2.646,0.31-4.522,1.68-4.522,3.425v15.917c0,0.959,0.68,1.765,1.584,1.957v2.938c0,0.473,0.278,0.879,0.683,1.064H53.893  c0.407-0.184,0.693-0.594,0.693-1.068v-2.955c0.87-0.215,1.52-1.004,1.52-1.941V30.868c0-1.738-1.856-3.103-4.48-3.421v-0.83  c0-0.648-0.523-1.172-1.171-1.172s-1.173,0.524-1.173,1.172v0.823c-2.643,0.31-4.521,1.681-4.521,3.427v11.62  c0,0.959,0.683,1.765,1.582,1.957v2.939c0,0.477,0.286,0.885,0.695,1.068h-9.906c0.403-0.186,0.683-0.592,0.683-1.064v-2.951  c0.869-0.217,1.521-1.004,1.521-1.942V26.576c0-1.736-1.856-3.101-4.479-3.42v-0.829c0-0.648-0.524-1.172-1.174-1.172  c-0.646,0-1.172,0.524-1.172,1.172v0.823c-2.646,0.31-4.521,1.68-4.521,3.425v15.917c0,0.959,0.68,1.765,1.584,1.957v2.938  c0,0.473,0.277,0.879,0.681,1.064H20.71c-0.647,0-1.173,0.523-1.173,1.174v25.352c0,0.312,0.124,0.608,0.343,0.83  c0.222,0.219,0.521,0.342,0.83,0.342h59.854c0.648,0,1.174-0.525,1.174-1.172V49.625C81.736,48.977,81.211,48.451,80.562,48.451z   M65.801,46.214V44.49h3.553v1.724H65.801z M64.898,25.978c0.677-0.349,1.642-0.548,2.646-0.548c1.004,0,1.967,0.199,2.645,0.548  c0.14,0.072,0.25,0.145,0.342,0.21h-5.975C64.648,26.123,64.76,26.05,64.898,25.978z M64.217,28.534h6.653v5.741h-6.653V28.534z   M64.217,36.622h6.653v5.525h-6.653V36.622z M48.688,46.208v-1.724h3.553v1.724H48.688z M47.787,30.269  c0.676-0.348,1.643-0.547,2.645-0.547c1.004,0,1.969,0.199,2.646,0.547c0.138,0.072,0.252,0.143,0.343,0.21h-5.975  C47.535,30.412,47.648,30.341,47.787,30.269z M47.104,32.825h6.653v9.317h-0.299c-0.019-0.002-0.032-0.003-0.047-0.003h-5.896  c-0.015,0-0.029,0.001-0.043,0.003h-0.369V32.825L47.104,32.825z M31.916,46.214V44.49h3.551v1.724H31.916z M31.014,25.978  c0.676-0.349,1.643-0.548,2.646-0.548c1.005,0,1.968,0.199,2.646,0.548c0.139,0.072,0.25,0.145,0.342,0.21h-5.974  C30.764,26.123,30.874,26.05,31.014,25.978z M30.33,28.534h6.654v5.741H30.33V28.534z M30.33,36.622h6.654l0.002,5.525H30.33V36.622  z M79.393,73.805H21.881v-3.883h57.512V73.805z M79.393,67.576H21.881V50.795h57.512V67.576z M70.562,65.773  c3.658,0,6.635-2.978,6.635-6.633c0-3.66-2.977-6.636-6.635-6.636s-6.633,2.976-6.633,6.636  C63.93,62.797,66.904,65.773,70.562,65.773z M70.562,54.852c2.364,0,4.289,1.924,4.289,4.289s-1.925,4.289-4.289,4.289  c-2.365,0-4.287-1.924-4.287-4.289S68.195,54.852,70.562,54.852z M30.689,65.773c3.658,0,6.633-2.978,6.633-6.633  c0-3.66-2.975-6.636-6.633-6.636c-3.655,0-6.633,2.976-6.633,6.636C24.057,62.797,27.034,65.773,30.689,65.773z M30.689,54.852  c2.365,0,4.289,1.924,4.289,4.289s-1.924,4.289-4.289,4.289c-2.364,0-4.287-1.924-4.287-4.289S28.325,54.852,30.689,54.852z   M50.678,62.395c1.777,0,3.221-1.445,3.221-3.22c0-1.776-1.442-3.221-3.221-3.221c-1.775,0-3.22,1.442-3.22,3.221  C47.458,60.949,48.902,62.395,50.678,62.395z M50.678,58.3c0.484,0,0.875,0.394,0.875,0.876s-0.391,0.875-0.875,0.875  c-0.482,0-0.873-0.393-0.873-0.875S50.195,58.3,50.678,58.3z"/></svg>
