<svg xmlns="http://www.w3.org/2000/svg" xmlns:xlink="http://www.w3.org/1999/xlink" version="1.1" x="0px" y="0px" viewBox="0 0 100 125" enable-background="new 0 0 100 100" xml:space="preserve"><path fill="#000000" d="M80.391,35.744H20.531c-0.646,0-1.172,0.523-1.172,1.174V62.27c0,0.312,0.123,0.608,0.344,0.83  c0.219,0.219,0.518,0.342,0.828,0.342h59.859c0.645,0,1.172-0.525,1.172-1.172V36.918C81.562,36.27,81.035,35.744,80.391,35.744z   M21.703,61.098v-3.883h57.512v3.883H21.703z M79.217,54.869H21.703V38.088h57.514V54.869z M70.387,39.799  c-3.656,0-6.637,2.977-6.637,6.635c0,3.656,2.98,6.633,6.637,6.633s6.635-2.977,6.635-6.633  C77.021,42.773,74.043,39.799,70.387,39.799z M70.387,50.723c-2.363,0-4.289-1.924-4.289-4.289s1.926-4.289,4.289-4.289  s4.289,1.924,4.289,4.289S72.75,50.723,70.387,50.723z M26.812,39.91c-1.775,0-3.221,1.445-3.221,3.221  c0,1.776,1.443,3.221,3.221,3.221s3.221-1.444,3.221-3.221C30.033,41.355,28.59,39.91,26.812,39.91z M26.812,44.006  c-0.482,0-0.875-0.393-0.875-0.875c0-0.484,0.393-0.877,0.875-0.877s0.875,0.393,0.875,0.877  C27.688,43.613,27.295,44.006,26.812,44.006z M59.355,41.25H41.154c-1.102,0-2,0.898-2,2v6.507c0,1.103,0.898,1.999,2,1.999h18.201  c1.104,0,2.002-0.896,2.002-1.999V43.25C61.357,42.148,60.461,41.25,59.355,41.25z M59.012,49.412H41.5v-5.816h17.512V49.412z"/><text x="0" y="115" fill="#000000" font-size="5px" font-weight="bold" font-family="'Helvetica Neue', Helvetica, Arial-Unicode, Arial, Sans-serif">Created by Simon Child</text><text x="0" y="120" fill="#000000" font-size="5px" font-weight="bold" font-family="'Helvetica Neue', Helvetica, Arial-Unicode, Arial, Sans-serif">from the Noun Project</text></svg>