<svg xmlns="http://www.w3.org/2000/svg" xmlns:xlink="http://www.w3.org/1999/xlink" version="1.1" x="0px" y="0px" viewBox="0 0 512 640" enable-background="new 0 0 512 512" xml:space="preserve"><g><path d="M467.7,2H44.3C21,2,2,21,2,44.3v409.2c0,23.3,19,42.3,42.3,42.3h26.1c0,7.8,6.3,14.1,14.1,14.1h50.9   c7.8,0,14.1-6.3,14.1-14.1h212.9c0,7.8,6.3,14.1,14.1,14.1h50.9c7.8,0,14.1-6.3,14.1-14.1h26.1c23.3,0,42.3-19,42.3-42.3V44.3   C510,21,491,2,467.7,2z M481.8,453.6c0,7.8-6.3,14.1-14.1,14.1H44.3c-7.8,0-14.1-6.3-14.1-14.1V44.3c0-7.8,6.3-14.1,14.1-14.1   h423.3c7.8,0,14.1,6.3,14.1,14.1V453.6z"/><path d="M439.4,58.4H72.6c-7.8,0-14.1,6.3-14.1,14.1v162.3c0,7.8,6.3,14.1,14.1,14.1h366.9c7.8,0,14.1-6.3,14.1-14.1V72.6   C453.6,64.8,447.2,58.4,439.4,58.4z M241.9,220.7h-64l-31.9-93.1c-2.5-7.4-10.6-11.3-17.9-8.8c-7.4,2.5-11.3,10.6-8.8,17.9l28.8,84   H86.7V86.7h155.2V220.7z M425.3,220.7H364l28.8-84c2.5-7.4-1.4-15.4-8.8-17.9c-7.4-2.5-15.4,1.4-17.9,8.8l-31.9,93.1h-64V86.7   h155.2V220.7z"/><path d="M106.3,352.1c-24.3,0-44.1,19.8-44.1,44.1c0,24.3,19.8,44.1,44.1,44.1c24.3,0,44.1-19.8,44.1-44.1   C150.4,371.9,130.6,352.1,106.3,352.1z M106.3,412.1c-8.8,0-15.9-7.1-15.9-15.9c0-8.8,7.1-15.9,15.9-15.9c8.8,0,15.9,7.1,15.9,15.9   C122.2,405,115,412.1,106.3,412.1z"/><path d="M405.7,352.1c-24.3,0-44.1,19.8-44.1,44.1c0,24.3,19.8,44.1,44.1,44.1c24.3,0,44.1-19.8,44.1-44.1   C449.8,371.9,430,352.1,405.7,352.1z M405.7,412.1c-8.8,0-15.9-7.1-15.9-15.9c0-8.8,7.1-15.9,15.9-15.9s15.9,7.1,15.9,15.9   C421.6,405,414.5,412.1,405.7,412.1z"/><path d="M402,267.9c-7.8,0-14.1,6.3-14.1,14.1v6.3h-6.3c-7.8,0-14.1,6.3-14.1,14.1c0,7.8,6.3,14.1,14.1,14.1h6.3v6.3   c0,7.8,6.3,14.1,14.1,14.1c7.8,0,14.1-6.3,14.1-14.1v-6.3h6.3c7.8,0,14.1-6.3,14.1-14.1c0-7.8-6.3-14.1-14.1-14.1h-6.3V282   C416.1,274.2,409.8,267.9,402,267.9z"/><path d="M85.9,316.5h40.8c7.8,0,14.1-6.3,14.1-14.1c0-7.8-6.3-14.1-14.1-14.1H85.9c-7.8,0-14.1,6.3-14.1,14.1   C71.8,310.2,78.1,316.5,85.9,316.5z"/></g><text x="0" y="527" fill="#000000" font-size="5px" font-weight="bold" font-family="'Helvetica Neue', Helvetica, Arial-Unicode, Arial, Sans-serif">Created by Icon Fair</text><text x="0" y="532" fill="#000000" font-size="5px" font-weight="bold" font-family="'Helvetica Neue', Helvetica, Arial-Unicode, Arial, Sans-serif">from the Noun Project</text></svg>