<svg xmlns="http://www.w3.org/2000/svg" xmlns:xlink="http://www.w3.org/1999/xlink" version="1.1" x="0px" y="0px" viewBox="0 0 100 125"><path d="M627,425 l0,449 l-168,-112 l-147,0 c-28,0,-28,0,-28,-28 l0,-168 c0,-29,0,-29,28,-29 l147,0 Z M737,500 c38,41,58,93,58,150 c0,56,-20,109,-58,150 l-50,-43 c28,-30,43,-66,43,-107 c0,-41,-15,-78,-43,-108 Z M844,415 c58,65,90,148,90,235 c0,85,-31,168,-90,235 l-53,-46 c48,-52,74,-118,74,-189 c0,-71,-26,-137,-74,-189 Z M-20,100 l1240,0 c54,0,80,26,80,80 l0,940 c0,54,-26,80,-80,80 l-1240,0 c-54,0,-80,-26,-80,-80 l0,-940 c0,-54,26,-80,80,-80 Z M0,200 l0,100 l100,0 l0,-100 Z M0,400 l0,100 l100,0 l0,-100 Z M0,600 l0,100 l100,0 l0,-100 Z M0,800 l0,100 l100,0 l0,-100 Z M0,1000 l0,100 l100,0 l0,-100 Z M200,200 l0,900 l800,0 l0,-900 Z M1100,200 l0,100 l100,0 l0,-100 Z M1100,400 l0,100 l100,0 l0,-100 Z M1100,600 l0,100 l100,0 l0,-100 Z M1100,800 l0,100 l100,0 l0,-100 Z M1100,1000 l0,100 l100,0 l0,-100 Z M1100,1000 " fill="#000000" stroke="none" stroke-dasharray="none" stroke-linecap="inherit" stroke-linejoin="inherit" stroke-width="1" transform="matrix(0.05,0.0,0.0,-0.05,20.0,80.0)"/><text x="0" y="115" fill="#000000" font-size="5px" font-weight="bold" font-family="'Helvetica Neue', Helvetica, Arial-Unicode, Arial, Sans-serif">Created by Thomas Helbig</text><text x="0" y="120" fill="#000000" font-size="5px" font-weight="bold" font-family="'Helvetica Neue', Helvetica, Arial-Unicode, Arial, Sans-serif">from the Noun Project</text></svg>