<svg xmlns="http://www.w3.org/2000/svg" xmlns:xlink="http://www.w3.org/1999/xlink" viewBox="0 0 24 23.75" version="1.1" x="0px" y="0px"><title>1 - Sound Card (Outline)</title><desc>Created with Sketch.</desc><g stroke="none" stroke-width="1" fill="none" fill-rule="evenodd"><g fill="#000000"><path d="M3,16 L23,16 C23.5522847,16 24,15.5522847 24,15 L24,3 C24,2.44771525 23.5522847,2 23,2 L3,2 C2.44771525,2 2,2.44771525 2,3 L2,15 C2,15.5522847 2.44771525,16 3,16 Z M4,4 L22,4 L22,14 L4,14 L4,4 Z"/><path d="M2,2 L2,17 C2,17.5522847 2.44771525,18 3,18 C3.55228475,18 4,17.5522847 4,17 L4,1 C4,0.44771525 3.55228475,0 3,0 L1,0 C0.44771525,0 0,0.44771525 0,1 C0,1.55228475 0.44771525,2 1,2 L2,2 Z"/><path d="M6,15 L6,18 C6,18.5522847 6.44771525,19 7,19 C7.55228475,19 8,18.5522847 8,18 L8,15 C8,14.4477153 7.55228475,14 7,14 C6.44771525,14 6,14.4477153 6,15 Z"/><path d="M10,15 L10,18 C10,18.5522847 10.4477153,19 11,19 C11.5522847,19 12,18.5522847 12,18 L12,15 C12,14.4477153 11.5522847,14 11,14 C10.4477153,14 10,14.4477153 10,15 Z"/><path d="M14,15 L14,18 C14,18.5522847 14.4477153,19 15,19 C15.5522847,19 16,18.5522847 16,18 L16,15 C16,14.4477153 15.5522847,14 15,14 C14.4477153,14 14,14.4477153 14,15 Z"/><path d="M18,7 L18,11 C18,11.5522847 18.4477153,12 19,12 C19.5522847,12 20,11.5522847 20,11 L20,7 C20,6.44771525 19.5522847,6 19,6 C18.4477153,6 18,6.44771525 18,7 Z"/><path d="M14,7 L14,11 C14,11.5522847 14.4477153,12 15,12 C15.5522847,12 16,11.5522847 16,11 L16,7 C16,6.44771525 15.5522847,6 15,6 C14.4477153,6 14,6.44771525 14,7 Z"/><path d="M6,8 L7,8 C7.55228475,8 8,7.55228475 8,7 C8,6.44771525 7.55228475,6 7,6 L6,6 C5.44771525,6 5,6.44771525 5,7 C5,7.55228475 5.44771525,8 6,8 Z"/><path d="M10,8 L11,8 C11.5522847,8 12,7.55228475 12,7 C12,6.44771525 11.5522847,6 11,6 L10,6 C9.44771525,6 9,6.44771525 9,7 C9,7.55228475 9.44771525,8 10,8 Z"/><path d="M6,12 L7,12 C7.55228475,12 8,11.5522847 8,11 C8,10.4477153 7.55228475,10 7,10 L6,10 C5.44771525,10 5,10.4477153 5,11 C5,11.5522847 5.44771525,12 6,12 Z"/><path d="M10,12 L11,12 C11.5522847,12 12,11.5522847 12,11 C12,10.4477153 11.5522847,10 11,10 L10,10 C9.44771525,10 9,10.4477153 9,11 C9,11.5522847 9.44771525,12 10,12 Z"/></g></g><text x="0" y="34" fill="#000000" font-size="5px" font-weight="bold" font-family="'Helvetica Neue', Helvetica, Arial-Unicode, Arial, Sans-serif">Created by Ben Davis</text><text x="0" y="39" fill="#000000" font-size="5px" font-weight="bold" font-family="'Helvetica Neue', Helvetica, Arial-Unicode, Arial, Sans-serif">from the Noun Project</text></svg>