<svg xmlns="http://www.w3.org/2000/svg" xmlns:xlink="http://www.w3.org/1999/xlink" version="1.1" x="0px" y="0px" viewBox="0 0 100 125" enable-background="new 0 0 100 100" xml:space="preserve"><path fill="#000000" d="M53.548,41.095c-1.354-0.988-3.016-1.531-4.684-1.531c-0.775,0-1.551,0.115-2.303,0.342  c-4.186,1.27-6.561,5.707-5.289,9.895c0.502,1.662,1.508,3.08,2.906,4.104c1.352,0.987,3.014,1.533,4.684,1.533  c0.775,0,1.551-0.117,2.301-0.345c2.031-0.615,3.695-1.981,4.695-3.853c1-1.866,1.213-4.013,0.598-6.041  C55.95,43.534,54.946,42.116,53.548,41.095z M48.862,53.088c-2.441,0-4.639-1.632-5.348-3.97c-0.859-2.838,0.658-5.84,3.404-6.857  c0.041,1.874,0.34,3.738,0.891,5.557c0.549,1.82,1.338,3.535,2.344,5.119C49.729,53.034,49.294,53.088,48.862,53.088z M53.79,50.134  c-0.377,0.705-0.891,1.307-1.504,1.782c-0.965-1.468-1.713-3.071-2.23-4.778c-0.516-1.707-0.783-3.457-0.795-5.215  c2.277,0.166,4.281,1.744,4.951,3.956C54.646,47.308,54.495,48.817,53.79,50.134z M87.558,35.774  c-0.812-2.682-2.127-5.125-3.906-7.263c-1.719-2.063-3.795-3.754-6.172-5.025c-2.379-1.271-4.938-2.062-7.607-2.345  c-2.447-0.261-4.893-0.083-7.283,0.524c-0.057-0.047-0.119-0.087-0.186-0.124c-0.275-0.147-0.594-0.179-0.895-0.088l-15.932,4.829  H27.114c-0.645,0-1.172,0.524-1.172,1.172v4.777l-2.879,0.873c-0.621,0.188-0.973,0.842-0.783,1.462l0.49,1.619l-4.836,0.484  c-0.646,0.064-1.113,0.641-1.049,1.286l4.012,39.971c0.033,0.31,0.184,0.595,0.426,0.789c0.211,0.174,0.473,0.265,0.742,0.265  c0.039,0,0.078,0,0.115-0.005l39.973-4.014c0.646-0.062,1.117-0.64,1.051-1.283l-0.49-4.879h4.572c0.65,0,1.174-0.522,1.174-1.173  v-3.615c0-0.079-0.006-0.156-0.021-0.23l5.4-1.635c0.389-0.119,0.67-0.418,0.781-0.777c2.324-0.819,4.457-2.03,6.348-3.606  c2.064-1.717,3.754-3.793,5.025-6.171s2.062-4.938,2.346-7.605C88.634,41.22,88.368,38.456,87.558,35.774z M28.288,28.626h9.549  l-9.549,2.893V28.626z M23.116,76.524l-3.779-37.639l4.127-0.414l2.504,8.26c-0.016,0.078-0.023,0.157-0.023,0.239v20.654  c0,0.649,0.525,1.173,1.172,1.173h5.537l1.277,4.213c0.154,0.508,0.619,0.835,1.123,0.835c0.113,0,0.227-0.019,0.34-0.052  l16.484-4.996h8.48l0.396,3.945L23.116,76.524z M28.288,66.452V54.396l3.654,12.059h-3.654V66.452z M66.116,66.452h-6.498  l6.498-1.967V66.452z M35.835,71.209L24.864,35.008l36.201-10.97l10.971,36.202L35.835,71.209z M67.212,36.228  c0.156-0.014,0.314-0.021,0.475-0.021c2.439,0,4.637,1.632,5.346,3.968c0.432,1.43,0.283,2.939-0.422,4.256  c-0.516,0.967-1.289,1.743-2.229,2.258L67.212,36.228z M86.009,43.735c-0.256,2.367-0.953,4.64-2.082,6.75  c-1.127,2.108-2.629,3.949-4.459,5.476c-1.598,1.33-3.389,2.364-5.34,3.092l-3.055-10.081c1.533-0.722,2.791-1.91,3.605-3.434  c1-1.868,1.211-4.016,0.598-6.043c-0.504-1.662-1.512-3.08-2.908-4.104c-1.354-0.987-3.018-1.532-4.682-1.532  c-0.391,0-0.779,0.029-1.166,0.087l-3.055-10.082c2.023-0.479,4.092-0.612,6.156-0.393c2.369,0.251,4.639,0.952,6.748,2.081  c2.109,1.128,3.953,2.629,5.477,4.459c1.578,1.893,2.744,4.062,3.465,6.44C86.034,38.833,86.267,41.284,86.009,43.735z"/><text x="0" y="115" fill="#000000" font-size="5px" font-weight="bold" font-family="'Helvetica Neue', Helvetica, Arial-Unicode, Arial, Sans-serif">Created by Simon Child</text><text x="0" y="120" fill="#000000" font-size="5px" font-weight="bold" font-family="'Helvetica Neue', Helvetica, Arial-Unicode, Arial, Sans-serif">from the Noun Project</text></svg>