<svg xmlns="http://www.w3.org/2000/svg" xmlns:xlink="http://www.w3.org/1999/xlink" version="1.1" x="0px" y="0px" viewBox="0 0 60 75" style="enable-background:new 0 0 60 60;" xml:space="preserve"><g><g><path d="M41,15H19c-1.7,0-3,1.3-3,3v16c0,1.7,1.3,3,3,3h22c1.7,0,3-1.3,3-3V18C44,16.3,42.7,15,41,15z M42,34c0,0.6-0.4,1-1,1H19    c-0.6,0-1-0.4-1-1V18c0-0.6,0.4-1,1-1h22c0.6,0,1,0.4,1,1V34z"/><path d="M30.4,19.1c-0.3-0.2-0.7-0.1-1,0.1L25.7,22H21c-0.6,0-1,0.4-1,1v6c0,0.6,0.4,1,1,1h4.7l3.7,2.8c0.2,0.1,0.4,0.2,0.6,0.2    c0.2,0,0.3,0,0.4-0.1c0.3-0.2,0.6-0.5,0.6-0.9V20C31,19.6,30.8,19.3,30.4,19.1z M29,30l-2.4-1.8C26.4,28.1,26.2,28,26,28h-4v-4h4    c0.2,0,0.4-0.1,0.6-0.2L29,22V30z"/><path d="M37.6,19.1c-0.5,0.2-0.7,0.8-0.4,1.3C38,22.2,38,25.1,38,26s0,3.8-0.9,5.6c-0.2,0.5,0,1.1,0.4,1.3C37.7,33,37.8,33,38,33    c0.4,0,0.7-0.2,0.9-0.6C40,30.2,40,27,40,26s0-4.2-1.1-6.4C38.6,19.1,38,18.9,37.6,19.1z"/><path d="M33.3,21.3c-0.4,0.4-0.4,1,0,1.4C34,23.4,34,25.2,34,26s0,2.6-0.7,3.3c-0.4,0.4-0.4,1,0,1.4c0.2,0.2,0.5,0.3,0.7,0.3    s0.5-0.1,0.7-0.3C36,29.4,36,27.1,36,26s0-3.4-1.3-4.7C34.3,20.9,33.7,20.9,33.3,21.3z"/><path d="M57,7H3c-1.7,0-3,1.3-3,3v38c0,1.7,1.3,3,3,3h20c-0.2,3.8-1.8,5.5-3.7,7.3c-0.3,0.3-0.4,0.7-0.2,1.1S19.6,60,20,60h20    c0.4,0,0.8-0.2,0.9-0.6s0.1-0.8-0.2-1.1c-1.8-1.8-3.4-3.4-3.7-7.3h20c1.7,0,3-1.3,3-3V10C60,8.3,58.7,7,57,7z M3,9h54    c0.6,0,1,0.4,1,1v33H2V10C2,9.4,2.4,9,3,9z M37.7,58H22.3c1.3-1.6,2.5-3.6,2.6-7H35C35.2,54.4,36.4,56.4,37.7,58z M57,49H3    c-0.6,0-1-0.4-1-1v-3h56v3C58,48.6,57.6,49,57,49z"/><path d="M5,41h50c0.6,0,1-0.4,1-1V12c0-0.6-0.4-1-1-1H5c-0.6,0-1,0.4-1,1v28C4,40.6,4.4,41,5,41z M6,13h48v26H6V13z"/></g></g></svg>
