<svg xmlns="http://www.w3.org/2000/svg" data-name="Layer 1" viewBox="0 0 60 75" x="0px" y="0px"><title>Computer Functions - 25-Sound</title><path d="M57,9H3a3,3,0,0,0-3,3V46H60V12A3,3,0,0,0,57,9ZM55,40a1,1,0,0,1-1,1H6a1,1,0,0,1-1-1V16a1,1,0,0,1,1-1H54a1,1,0,0,1,1,1Z"/><path d="M0,49a3,3,0,0,0,3,3H23.99994c-.00006,3.99994-2.87018,4.45618-4.707,6.293A.99991.99991,0,0,0,20,60H40a.99991.99991,0,0,0,.707-1.707c-1.83679-1.83679-4.70691-2.293-4.707-6.293H57a3,3,0,0,0,3-3V48H0Z"/><path d="M41,19H19a1.0013,1.0013,0,0,0-1,1V36a1.0013,1.0013,0,0,0,1,1H41a1.0013,1.0013,0,0,0,1-1V20A1.0013,1.0013,0,0,0,41,19ZM31,34a.99988.99988,0,0,1-1.6001.7998L25.6665,32H21a1,1,0,0,1-1-1V25a1,1,0,0,1,1-1h4.6665l3.7334-2.7998A.99982.99982,0,0,1,31,22Zm3.707-1.293A.99989.99989,0,0,1,33.293,31.293C34,30.58594,34,28.77393,34,28s0-2.58594-.707-3.293A.99989.99989,0,0,1,34.707,23.293C36,24.58594,36,26.8916,36,28S36,31.41406,34.707,32.707Zm4.1875,1.74023a1.00012,1.00012,0,0,1-1.78906-.89453A14.0193,14.0193,0,0,0,38,28a14.0193,14.0193,0,0,0-.89453-5.55273,1.00012,1.00012,0,1,1,1.78906-.89453A15.77527,15.77527,0,0,1,40,28,15.77527,15.77527,0,0,1,38.89453,34.44727Z"/><path d="M28.2,24.59991l-1.60034,1.2002A.99933.99933,0,0,1,26,26H22.5a.5.5,0,0,0-.5.5v3a.5.5,0,0,0,.5.5h3.49945a1.00115,1.00115,0,0,1,.60065.2002L28.2,31.4A.5.5,0,0,0,29,31V24.99994A.5.5,0,0,0,28.2,24.59991Z"/></svg>
