<svg xmlns="http://www.w3.org/2000/svg" xmlns:xlink="http://www.w3.org/1999/xlink" version="1.1" x="0px" y="0px" viewBox="0 0 100 125" enable-background="new 0 0 100 100" xml:space="preserve"><g><g><path d="M53.4,60.9h-7.7l0.7-40.3h6.1L53.4,60.9z M47.5,59.1h4l-0.8-36.7h-2.5L47.5,59.1z"/></g><g><path d="M49.9,94.7c-4.1,0-8.4-0.8-11.8-2.7c-3.3-1.9-5.3-4.6-5.8-7.8c-0.3-2,0-4.1,0.8-5.7c0.5-1,1.2-1.9,1.9-2.7    c1-1.3,2-2.5,2.1-4c0.1-1.4-0.5-2.7-1-4.1c-0.4-0.9-0.7-1.8-0.9-2.7c-0.7-3.1-0.6-5.9,0.3-8.3c0.9-2.3,2.5-4,5.1-5.6l2-1.2    l-0.6,2.2c-0.2,0.6-0.2,1.5-0.2,2.6c0,0.9,0.3,1.5,0.8,1.9c0.5,0.4,1.2,0.5,1.9,0.4c0.5-0.1,1-0.5,1.1-0.9c0.2-0.5,0.3-1,0.3-1.7    l1.8-0.1c0,0.9-0.1,1.7-0.4,2.4c-0.4,1-1.3,1.7-2.4,2c-1.2,0.3-2.6,0-3.5-0.7c-0.9-0.7-1.4-1.9-1.4-3.2c0-0.4,0-0.7,0-1    c-1.3,1-2.1,2.2-2.7,3.6c-0.8,2.1-0.9,4.5-0.3,7.2c0.2,0.8,0.5,1.6,0.9,2.5c0.6,1.5,1.3,3.1,1.2,4.9c-0.1,2.1-1.3,3.6-2.5,5    c-0.6,0.8-1.3,1.5-1.7,2.3c-0.6,1.2-0.8,2.9-0.6,4.6c0.4,2.7,2,4.9,4.8,6.5c5.6,3.1,14.5,3.1,19.3,1c5.3-2.2,7.8-5.3,7.5-9.2    c-0.1-1.6-0.8-3.1-1.5-4.4c-0.4-0.7-0.9-1.2-1.4-1.8c-0.8-1-1.7-2-2.1-3.6c-0.6-2.3,0.1-4.1,0.8-6c0.4-1.2,0.8-2.3,0.9-3.5    c0.1-2.7-0.8-5.2-2.6-7.2c0,0.1,0,0.2-0.1,0.3c-0.3,1-1,2.2-3,2.5c-2.5,0.3-4.4-0.7-5.3-2.9c-0.1-0.3-0.2-0.6-0.3-0.9l1.8-0.5    c0.1,0.2,0.1,0.5,0.2,0.7c0.6,1.4,1.7,2,3.4,1.8c1-0.1,1.3-0.6,1.4-1.1c0.2-0.6,0.1-1.3,0-1.9L58,51.5l1.7,1.4    c3.2,2.7,4.9,6.3,4.7,10.2c-0.1,1.5-0.5,2.8-1,4.1c-0.6,1.6-1.1,3.2-0.7,4.9c0.3,1.1,1,1.9,1.7,2.8c0.5,0.6,1.1,1.3,1.6,2.1    c0.8,1.4,1.6,3.1,1.7,5.1c0.4,4.7-2.5,8.4-8.6,11C56.7,94.1,53.4,94.7,49.9,94.7z"/></g><g><path d="M54,64.8h-9.3v-5.1H54V64.8z M46.6,62.9h5.6v-1.4h-5.6V62.9z"/></g><g><path d="M54,71.9h-9.3v-5.1H54V71.9z M46.6,70.1h5.6v-1.4h-5.6V70.1z"/></g><g><path d="M45,75.7c-0.5,0-0.9-0.4-0.9-0.8c0-0.5,0.3-0.9,0.8-1l8.7-0.7c0.5-0.1,0.9,0.3,1,0.8c0,0.5-0.3,0.9-0.8,1L45,75.7    C45,75.7,45,75.7,45,75.7z"/></g><g><path d="M54.2,78.2H45c-0.5,0-0.9-0.4-0.9-0.9c0-0.5,0.4-0.9,0.9-0.9h9.2c0.5,0,0.9,0.4,0.9,0.9C55.1,77.8,54.7,78.2,54.2,78.2z"/></g><g><path d="M59.6,82.2c0.3,0.4,0.2,1.1-0.2,1.4c-0.5,0.3-1.1,0.2-1.4-0.2c-0.3-0.4-0.2-1.1,0.2-1.4C58.7,81.7,59.3,81.8,59.6,82.2z"/></g><g><path d="M63.6,82.2c0.3,0.4,0.2,1.1-0.2,1.4c-0.5,0.3-1.1,0.2-1.4-0.2c-0.3-0.4-0.2-1.1,0.2-1.4C62.6,81.7,63.3,81.8,63.6,82.2z"/></g><g><circle cx="61" cy="86.9" r="1"/></g><g><circle cx="56.7" cy="86.8" r="1"/></g><g><path d="M59.7,80.7c-0.9,0-1.8-0.4-2.3-1.1c-0.5-0.6-0.7-1.4-0.6-2.1c0.1-0.8,0.5-1.4,1.2-1.9c1.3-0.9,3.1-0.6,4.1,0.6    c0.5,0.6,0.7,1.4,0.6,2.1c-0.1,0.8-0.5,1.4-1.2,1.9C60.9,80.5,60.3,80.7,59.7,80.7z M59.7,76.8c-0.2,0-0.5,0.1-0.7,0.2    c-0.2,0.2-0.4,0.4-0.4,0.7c0,0.3,0,0.5,0.2,0.7c0.3,0.5,1.1,0.6,1.6,0.2c0.2-0.2,0.4-0.4,0.4-0.7c0-0.3,0-0.5-0.2-0.7    C60.3,77,60,76.8,59.7,76.8z"/></g><g><path d="M52.5,22.4h-6.1l0-0.9c0-0.6-0.3-2-0.9-2.4l-0.4-0.3L44.8,5.6L46,5.9l0,0c0,0,1.3,0.3,3-0.5l0.4-0.2l0.4,0.2    C51.6,6.3,53,5.9,53,5.9l1.2-0.3l-0.4,13.2l-0.4,0.3c-0.6,0.4-0.8,1.8-0.9,2.4L52.5,22.4z M48.1,20.6h2.7c0.1-0.8,0.4-1.9,1.1-2.6    l0.3-10.1c-0.7,0-1.7-0.1-2.8-0.5c-1.1,0.4-2.1,0.5-2.7,0.5c0,0,0,0,0,0L47,18C47.7,18.7,48,19.8,48.1,20.6z"/></g></g></svg>
