<svg xmlns="http://www.w3.org/2000/svg" xmlns:xlink="http://www.w3.org/1999/xlink" version="1.1" x="0px" y="0px" viewBox="0 0 60 75" style="enable-background:new 0 0 60 60;" xml:space="preserve"><g><g><path d="M19,47h22c1.7,0,3-1.3,3-3V28c0-1.7-1.3-3-3-3H19c-1.7,0-3,1.3-3,3v16C16,45.7,17.3,47,19,47z M18,28c0-0.6,0.4-1,1-1h22    c0.6,0,1,0.4,1,1v16c0,0.6-0.4,1-1,1H19c-0.6,0-1-0.4-1-1V28z"/><path d="M21,40h4.7l3.7,2.8c0.2,0.1,0.4,0.2,0.6,0.2c0.2,0,0.3,0,0.4-0.1c0.3-0.2,0.6-0.5,0.6-0.9V30c0-0.4-0.2-0.7-0.6-0.9    c-0.3-0.2-0.7-0.1-1,0.1L25.7,32H21c-0.6,0-1,0.4-1,1v6C20,39.6,20.4,40,21,40z M22,34h4c0.2,0,0.4-0.1,0.6-0.2L29,32v8l-2.4-1.8    C26.4,38.1,26.2,38,26,38h-4V34z"/><path d="M37.6,42.9C37.7,43,37.9,43,38,43c0.4,0,0.7-0.2,0.9-0.6C40,40.2,40,37,40,36s0-4.2-1.1-6.4c-0.2-0.5-0.8-0.7-1.3-0.4    c-0.5,0.2-0.7,0.8-0.4,1.3C38,32.2,38,35.1,38,36s0,3.8-0.9,5.6C36.9,42,37.1,42.6,37.6,42.9z"/><path d="M33.3,40.7c0.2,0.2,0.5,0.3,0.7,0.3s0.5-0.1,0.7-0.3C36,39.4,36,37.1,36,36s0-3.4-1.3-4.7c-0.4-0.4-1-0.4-1.4,0    s-0.4,1,0,1.4C34,33.4,34,35.2,34,36s0,2.6-0.7,3.3C32.9,39.7,32.9,40.3,33.3,40.7z"/><path d="M59,53h-3V21c0-2.2-1.8-4-4-4H8c-2.2,0-4,1.8-4,4v32H1c-0.6,0-1,0.4-1,1c0,3.3,2.7,6,6,6h48c3.3,0,6-2.7,6-6    C60,53.4,59.6,53,59,53z M6,21c0-1.1,0.9-2,2-2h44c1.1,0,2,0.9,2,2v32H6V21z M54,58H6c-1.9,0-3.4-1.3-3.9-3H24c0,0.6,0.4,1,1,1h10    c0.6,0,1-0.4,1-1h21.9C57.4,56.7,55.9,58,54,58z"/><path d="M51,21H9c-0.6,0-1,0.4-1,1v28c0,0.6,0.4,1,1,1h42c0.6,0,1-0.4,1-1V22C52,21.4,51.6,21,51,21z M50,49H10V23h40V49z"/></g></g><text x="0" y="75" fill="#000000" font-size="5px" font-weight="bold" font-family="'Helvetica Neue', Helvetica, Arial-Unicode, Arial, Sans-serif">Created by Luke Offa</text><text x="0" y="80" fill="#000000" font-size="5px" font-weight="bold" font-family="'Helvetica Neue', Helvetica, Arial-Unicode, Arial, Sans-serif">from the Noun Project</text></svg>