<svg xmlns="http://www.w3.org/2000/svg" xmlns:xlink="http://www.w3.org/1999/xlink" version="1.1" x="0px" y="0px" viewBox="0 0 100 100" enable-background="new 0 0 100 100" xml:space="preserve"><path d="M93.666,48.372c-0.037-0.029-3.741-2.938-7.123-6.594c-5.215-5.637-23.026-23.294-33.265-13.84  c-0.071,0.065-0.129,0.139-0.188,0.212c-0.96-0.128-5.099-0.118-6.15,0.036c-0.067-0.086-0.137-0.172-0.22-0.248  c-10.24-9.45-28.05,8.203-33.264,13.84c-3.372,3.645-7.086,6.565-7.124,6.594c-0.483,0.379-0.766,0.958-0.767,1.571  c-0.001,0.613,0.279,1.193,0.761,1.573c0.037,0.029,3.747,2.97,7.121,6.658c4.501,4.92,15.99,16.596,25.457,16.617  c3.074,0.007,5.467-0.962,7.39-2.87c0.086-0.085,0.159-0.179,0.226-0.275c1.184,0.198,5.902,0.218,6.998,0.05  c0.058,0.077,0.115,0.155,0.185,0.225c2.841,2.818,6.514,2.876,7.39,2.87c9.467-0.063,20.956-11.697,25.457-16.617  c3.364-3.677,7.084-6.629,7.121-6.658c0.481-0.38,0.762-0.961,0.76-1.574S94.149,48.75,93.666,48.372z M65.357,38.559H34.959  c3.47-4.618,8.992-7.609,15.199-7.609S61.888,33.94,65.357,38.559z M31.157,49.951c0-2.541,0.501-4.966,1.41-7.184l15.018,26.012  C38.319,67.52,31.157,59.556,31.157,49.951z M67.617,42.45c0.993,2.303,1.543,4.839,1.543,7.501c0,9.723-7.34,17.763-16.77,18.872  L67.617,42.45z"/></svg>
