<svg xmlns="http://www.w3.org/2000/svg" viewBox="0 0 80 100" x="0px" y="0px"><title>mix table</title><g data-name="Calque 2"><g><path d="M72.17,0H7.83A7.84,7.84,0,0,0,0,7.83V72.17A7.84,7.84,0,0,0,7.83,80H72.17A7.84,7.84,0,0,0,80,72.17V7.83A7.84,7.84,0,0,0,72.17,0Zm2.24,72.17a2.25,2.25,0,0,1-2.24,2.24H7.83a2.25,2.25,0,0,1-2.24-2.24V7.83A2.25,2.25,0,0,1,7.83,5.58H72.17a2.25,2.25,0,0,1,2.24,2.24Z"/><path d="M32.27,19.9H29.44v-3a2.35,2.35,0,0,0-4.69,0v3H21.92A3,3,0,0,0,19,22.84v6.83a3,3,0,0,0,2.94,2.94h2.83V63.09a2.35,2.35,0,0,0,4.69,0V32.62h2.83a3,3,0,0,0,2.94-2.94V22.84A3,3,0,0,0,32.27,19.9Z"/><path d="M58.08,45.23H55.25V16.91a2.35,2.35,0,0,0-2.35-2.35h0a2.35,2.35,0,0,0-2.35,2.35V45.23H47.73a3,3,0,0,0-2.94,2.94V55a3,3,0,0,0,2.94,2.94h2.83v5.15a2.35,2.35,0,0,0,2.35,2.35h0a2.35,2.35,0,0,0,2.35-2.35V57.94h2.83A3,3,0,0,0,61,55V48.17A3,3,0,0,0,58.08,45.23Z"/></g></g><text x="0" y="95" fill="#000000" font-size="5px" font-weight="bold" font-family="'Helvetica Neue', Helvetica, Arial-Unicode, Arial, Sans-serif">Created by Tanguy Keryhuel</text><text x="0" y="100" fill="#000000" font-size="5px" font-weight="bold" font-family="'Helvetica Neue', Helvetica, Arial-Unicode, Arial, Sans-serif">from the Noun Project</text></svg>