<svg xmlns="http://www.w3.org/2000/svg" xmlns:xlink="http://www.w3.org/1999/xlink" version="1.1" x="0px" y="0px" viewBox="0 0 100 125" enable-background="new 0 0 100 100" xml:space="preserve"><path d="M66.09,18.65l0.57-2.67c1.45,0.31,3.34,0.59,5.46,0.59c4.88,0,7.76-1.69,7.76-1.69V10.6c0,0-3.26,1.02-7.76,1.02  c-3.83,0-7.73-0.73-8.86-0.95l-0.18-0.04c-0.09-0.02-0.14-0.03-0.14-0.03l-1.45,6.05c-3.65-1.29-7.58-1.99-11.66-1.99  c-19.4,0-35.17,15.77-35.17,35.16c0,19.4,15.77,35.17,35.17,35.17c19.39,0,35.16-15.77,35.16-35.17  C84.99,36.29,77.32,24.53,66.09,18.65z M63.37,31.3c5.7,4.19,9.399,10.93,9.399,18.52c0,12.66-10.289,22.95-22.939,22.95  c-12.66,0-22.96-10.29-22.96-22.95c0-12.65,10.3-22.95,22.96-22.95c3.11,0,6.08,0.62,8.78,1.75L55.34,42.24  c-1.54-1.12-3.45-1.79-5.51-1.79c-5.18,0-9.38,4.2-9.38,9.37c0,5.18,4.2,9.38,9.38,9.38c4.47,0,8.22-3.14,9.14-7.35l0.08-0.39  L63.37,31.3z M49.83,81.17c-17.29,0-31.36-14.06-31.36-31.35c0-17.28,14.07-31.34,31.36-31.34c3.78,0,7.41,0.67,10.76,1.91  l-1.32,5.5c-2.92-1.17-6.109-1.81-9.439-1.81c-14.2,0-25.75,11.55-25.75,25.74c0,14.2,11.55,25.75,25.75,25.75  c14.189,0,25.74-11.55,25.74-25.75c0-8.95-4.601-16.86-11.561-21.47l1.24-5.8c9.5,5.39,15.92,15.59,15.92,27.27  C81.17,67.11,67.11,81.17,49.83,81.17z"/><path d="M35.232,49.825h-3c0-9.7,7.892-17.592,17.593-17.592v3C41.778,35.232,35.232,41.778,35.232,49.825z"/><path d="M8.916,49.825h-3c0-24.211,19.697-43.909,43.909-43.909v3C27.268,8.916,8.916,27.268,8.916,49.825z"/></svg>
