<svg xmlns="http://www.w3.org/2000/svg" xmlns:xlink="http://www.w3.org/1999/xlink" viewBox="0 0 24 30" version="1.1" x="0px" y="0px"><title>88 - Sound Cable (Outline)</title><desc>Created with Sketch.</desc><g stroke="none" stroke-width="1" fill="none" fill-rule="evenodd"><g fill="#000000"><path d="M16,18 C16,20.2087153 14.2087153,22 12,22 C9.79128475,22 8,20.2087153 8,18 C8,15.7912847 9.79128475,14 12,14 C14.2087153,14 16,15.7912847 16,18 Z M18,18 C18,14.6867153 15.3132847,12 12,12 C8.68671525,12 6,14.6867153 6,18 C6,21.3132847 8.68671525,24 12,24 C15.3132847,24 18,21.3132847 18,18 Z"/><path d="M20,9 L20,14 C20,18.3977153 16.3977153,22 12,22 C7.60228475,22 4,18.3977153 4,14 L4,9 C4,8.44771525 3.55228475,8 3,8 C2.44771525,8 2,8.44771525 2,9 L2,14 C2,19.5022847 6.49771525,24 12,24 C17.5022847,24 22,19.5022847 22,14 L22,9 C22,8.44771525 21.5522847,8 21,8 C20.4477153,8 20,8.44771525 20,9 Z"/><path d="M1,10 L5,10 C5.55228475,10 6,9.55228475 6,9 L6,5 C6,4.44771525 5.55228475,4 5,4 L1,4 C0.44771525,4 0,4.44771525 0,5 L0,9 C0,9.55228475 0.44771525,10 1,10 Z M2,8 L2,6 L4,6 L4,8 L2,8 Z"/><path d="M4,4 L2,4 L2,3 C2,2.44728475 2.44728475,2 3,2 C3.55271525,2 4,2.44728475 4,3 L4,4 Z M5,6 C5.55228475,6 6,5.55228475 6,5 L6,3 C6,1.34271525 4.65728475,0 3,0 C1.34271525,0 0,1.34271525 0,3 L0,5 C0,5.55228475 0.44771525,6 1,6 L5,6 Z"/><path d="M19,10 L23,10 C23.5522847,10 24,9.55228475 24,9 L24,5 C24,4.44771525 23.5522847,4 23,4 L19,4 C18.4477153,4 18,4.44771525 18,5 L18,9 C18,9.55228475 18.4477153,10 19,10 Z M20,8 L20,6 L22,6 L22,8 L20,8 Z"/><path d="M22,4 L20,4 L20,3 C20,2.44728475 20.4472847,2 21,2 C21.5527153,2 22,2.44728475 22,3 L22,4 Z M23,6 C23.5522847,6 24,5.55228475 24,5 L24,3 C24,1.34271525 22.6572847,0 21,0 C19.3427153,0 18,1.34271525 18,3 L18,5 C18,5.55228475 18.4477153,6 19,6 L23,6 Z"/></g></g><text x="0" y="39" fill="#000000" font-size="5px" font-weight="bold" font-family="'Helvetica Neue', Helvetica, Arial-Unicode, Arial, Sans-serif">Created by Ben Davis</text><text x="0" y="44" fill="#000000" font-size="5px" font-weight="bold" font-family="'Helvetica Neue', Helvetica, Arial-Unicode, Arial, Sans-serif">from the Noun Project</text></svg>