<svg xmlns="http://www.w3.org/2000/svg" xmlns:xlink="http://www.w3.org/1999/xlink" version="1.1" x="0px" y="0px" viewBox="-255 347 100 125" style="enable-background:new -255 347 100 100;" xml:space="preserve"><path d="M-205,409.7c6.2,0,11.3-5.1,11.3-11.3v-19.1c0-6.2-5.1-11.3-11.3-11.3c-6.2,0-11.3,5.1-11.3,11.3v19.1  C-216.3,404.6-211.2,409.7-205,409.7z M-211.3,379.3c0-3.5,2.8-6.3,6.3-6.3c3.5,0,6.3,2.8,6.3,6.3v19.1c0,3.5-2.8,6.3-6.3,6.3  c-3.4,0-6.3-2.8-6.3-6.3V379.3z M-189.4,387.1c-1.4,0-2.5,1.1-2.5,2.5v8.5c0,7.2-5.9,13.1-13.1,13.1s-13.1-5.9-13.1-13.1v-8.5  c0-1.4-1.1-2.5-2.5-2.5s-2.5,1.1-2.5,2.5v8.5c0,9.1,6.8,16.7,15.6,17.9v4.9h-5.6c-1.4,0-2.5,1.1-2.5,2.5s1.1,2.5,2.5,2.5h16.1  c1.4,0,2.5-1.1,2.5-2.5s-1.1-2.5-2.5-2.5h-5.6v-4.9c8.8-1.2,15.6-8.8,15.6-17.9v-8.5C-186.9,388.2-188,387.1-189.4,387.1z   M-162.5,377.5c-1.6-4.9-4.3-8.4-8.2-10.6c-4.2-2.5-8.5-4.9-12.7-7.3c-4.2-2.4-8.3-4.8-12.6-7.3c-2.7-1.5-5.4-2.3-8.4-2.4  c-3.6-0.1-6.7,0.6-9.4,2.2c-2.4,1.4-4.7,2.7-7.1,4.1c-6,3.5-12.2,7-18.3,10.6c-5.8,3.5-8.9,8.9-8.9,15.5c-0.1,6.5,0,13.1,0,19.5  c0,3.2,0,6.5,0,9.7c0,1.9,0.3,3.7,0.8,5.2c1.6,4.6,4.3,8.1,8.1,10.3c4.1,2.4,8.3,4.8,12.4,7.2c4.2,2.4,8.4,4.8,12.5,7.2  c2.5,1.5,5.1,2.3,8.1,2.5c0.5,0,1,0,1.4,0c3.2,0,6.1-0.8,8.7-2.3c8.2-4.8,16.8-9.8,25.1-14.6c2.7-1.5,4.9-3.6,6.5-6.4  c1.8-3.1,2.6-5.7,2.6-8.5v-29.9C-161.8,380.8-162,379.1-162.5,377.5z M-166.8,412.3c0,1.8-0.6,3.7-2,6c-1.1,2-2.6,3.5-4.6,4.6  c-8.4,4.8-17,9.8-25.2,14.6c-2.1,1.2-4.4,1.7-7.2,1.6c-2.2-0.2-4.1-0.8-5.9-1.9c-4.2-2.4-8.4-4.8-12.6-7.2  c-4.1-2.4-8.3-4.8-12.4-7.2c-2.8-1.6-4.7-4-5.9-7.6c-0.4-1-0.6-2.2-0.6-3.6c0-3.2,0-6.5,0-9.7c0-6.4,0-13,0-19.5  c0-5,2.1-8.6,6.5-11.3c6-3.6,12.2-7.2,18.2-10.6c2.4-1.4,4.7-2.7,7.2-4.1c1.8-1.1,3.7-1.6,6.1-1.6c0.2,0,0.4,0,0.6,0  c2.2,0.1,4.2,0.7,6.1,1.8c4.2,2.4,8.4,4.9,12.5,7.3c4.2,2.4,8.4,4.9,12.7,7.3c2.8,1.6,4.7,4.1,5.9,7.8c0.3,1,0.5,2.2,0.5,3.4V412.3z  "/></svg>
