<svg xmlns="http://www.w3.org/2000/svg" xmlns:xlink="http://www.w3.org/1999/xlink" version="1.1" x="0px" y="0px" viewBox="0 0 100 125" enable-background="new 0 0 100 100" xml:space="preserve"><rect x="4.999" y="5" fill="none" width="90.001" height="89.999"/><g><path d="M9.521,31.331h8.089c1.663,3.083,4.834,4.988,8.345,4.988c3.51,0,6.683-1.904,8.344-4.988h56.18   c2.476,0,4.489-2.014,4.489-4.49s-2.014-4.49-4.489-4.49h-56.18c-1.662-3.084-4.834-4.989-8.344-4.989   c-3.511,0-6.683,1.904-8.345,4.989H9.521c-2.477,0-4.49,2.014-4.49,4.49S7.044,31.331,9.521,31.331z M25.955,21.468   c2.962,0,5.374,2.41,5.374,5.374c0,2.962-2.411,5.374-5.374,5.374c-2.963,0-5.374-2.411-5.374-5.374   C20.581,23.878,22.992,21.468,25.955,21.468z"/><path d="M90.479,68.669h-56.18c-1.662-3.086-4.834-4.99-8.344-4.99c-3.511,0-6.683,1.904-8.345,4.99H9.521   c-2.477,0-4.49,2.012-4.49,4.488s2.014,4.49,4.49,4.49h8.089c1.663,3.084,4.834,4.988,8.345,4.988c3.51,0,6.683-1.904,8.344-4.988   h56.18c2.476,0,4.489-2.014,4.489-4.49S92.954,68.669,90.479,68.669z M25.955,78.53c-2.963,0-5.374-2.41-5.374-5.373   s2.411-5.373,5.374-5.373c2.962,0,5.374,2.41,5.374,5.373S28.917,78.53,25.955,78.53z"/><path d="M90.479,45.509h-8.09c-1.663-3.083-4.835-4.987-8.346-4.987c-3.51,0-6.682,1.904-8.345,4.987H9.521   c-2.477,0-4.49,2.014-4.49,4.49c0,2.477,2.014,4.49,4.49,4.49h56.178c1.663,3.084,4.835,4.988,8.345,4.988   c3.511,0,6.683-1.904,8.346-4.988h8.09c2.476,0,4.489-2.014,4.489-4.49C94.968,47.523,92.954,45.509,90.479,45.509z M74.043,55.374   c-2.963,0-5.374-2.412-5.374-5.375c0-2.962,2.411-5.374,5.374-5.374c2.964,0,5.374,2.411,5.374,5.374   C79.417,52.962,77.007,55.374,74.043,55.374z"/></g><text x="0" y="115" fill="#000000" font-size="5px" font-weight="bold" font-family="'Helvetica Neue', Helvetica, Arial-Unicode, Arial, Sans-serif">Created by Tinashe Mugayi</text><text x="0" y="120" fill="#000000" font-size="5px" font-weight="bold" font-family="'Helvetica Neue', Helvetica, Arial-Unicode, Arial, Sans-serif">from the Noun Project</text></svg>