<svg xmlns="http://www.w3.org/2000/svg" xmlns:xlink="http://www.w3.org/1999/xlink" version="1.1" x="0px" y="0px" viewBox="0 0 100 125" enable-background="new 0 0 100 100" xml:space="preserve"><g><circle cx="9.662" cy="87.767" r="4.662"/><circle cx="9.662" cy="75.178" r="4.662"/><circle cx="9.662" cy="62.589" r="4.662"/><circle cx="9.662" cy="50" r="4.662"/><circle cx="9.662" cy="37.411" r="4.662"/><circle cx="23.108" cy="87.767" r="4.662"/><circle cx="23.108" cy="75.178" r="4.662"/><circle cx="36.554" cy="87.767" r="4.662"/><circle cx="36.554" cy="75.178" r="4.662"/><circle cx="36.554" cy="62.589" r="4.662"/><circle cx="36.554" cy="50" r="4.662"/><circle cx="36.554" cy="37.411" r="4.662"/><circle cx="36.554" cy="24.822" r="4.662"/><circle cx="36.554" cy="12.233" r="4.662"/><circle cx="50" cy="87.767" r="4.662"/><circle cx="50" cy="75.178" r="4.662"/><circle cx="50" cy="62.589" r="4.662"/><circle cx="50" cy="50" r="4.662"/><circle cx="50" cy="37.411" r="4.662"/><circle cx="63.446" cy="87.767" r="4.661"/><circle cx="76.892" cy="87.767" r="4.662"/><circle cx="76.892" cy="75.178" r="4.662"/><circle cx="76.892" cy="62.589" r="4.662"/><circle cx="76.892" cy="50" r="4.662"/><circle cx="90.338" cy="87.767" r="4.662"/><circle cx="90.338" cy="75.178" r="4.662"/><circle cx="90.338" cy="62.589" r="4.662"/><circle cx="90.338" cy="50" r="4.662"/><circle cx="90.338" cy="37.411" r="4.662"/></g><text x="0" y="115" fill="#000000" font-size="5px" font-weight="bold" font-family="'Helvetica Neue', Helvetica, Arial-Unicode, Arial, Sans-serif">Created by Alena Artemova</text><text x="0" y="120" fill="#000000" font-size="5px" font-weight="bold" font-family="'Helvetica Neue', Helvetica, Arial-Unicode, Arial, Sans-serif">from the Noun Project</text></svg>