<svg xmlns="http://www.w3.org/2000/svg" xmlns:xlink="http://www.w3.org/1999/xlink" version="1.1" x="0px" y="0px" viewBox="0 0 100 125" enable-background="new 0 0 100 100" xml:space="preserve"><path fill="#000000" d="M84.467,78.021H14.615c-0.646,0-1.172-0.526-1.172-1.174V22.751c0-0.648,0.525-1.173,1.172-1.173h69.852  c0.648,0,1.174,0.524,1.174,1.173v54.097C85.641,77.494,85.115,78.021,84.467,78.021z M15.789,75.675h67.504V23.924H15.789V75.675  L15.789,75.675z M49.541,75.243c-3.434,0-6.768-0.67-9.904-1.998c-3.031-1.283-5.752-3.118-8.088-5.452  c-2.336-2.338-4.172-5.059-5.453-8.088c-1.328-3.141-2-6.473-2-9.906c0-3.433,0.672-6.768,2-9.906  c1.281-3.028,3.117-5.75,5.453-8.086s5.057-4.171,8.088-5.453c3.139-1.327,6.471-2,9.904-2c3.436,0,6.768,0.673,9.906,2  c3.029,1.282,5.752,3.117,8.088,5.453s4.17,5.058,5.451,8.086c1.328,3.14,2.002,6.474,2.002,9.906c0,3.434-0.674,6.77-2.002,9.906  c-1.281,3.027-3.115,5.75-5.451,8.088c-2.336,2.334-5.059,4.169-8.088,5.452C56.309,74.573,52.977,75.243,49.541,75.243z   M49.541,26.698c-3.119,0-6.145,0.611-8.99,1.814c-2.752,1.164-5.223,2.831-7.344,4.951c-2.121,2.122-3.787,4.593-4.949,7.344  c-1.205,2.848-1.816,5.871-1.816,8.991s0.611,6.144,1.816,8.992c1.162,2.751,2.828,5.22,4.949,7.342s4.592,3.787,7.344,4.952  c2.846,1.204,5.871,1.814,8.99,1.814s6.145-0.61,8.992-1.814c2.752-1.165,5.221-2.83,7.344-4.952  c2.119-2.122,3.785-4.591,4.949-7.342c1.205-2.849,1.816-5.872,1.816-8.992s-0.611-6.144-1.816-8.991  c-1.164-2.75-2.83-5.222-4.949-7.344c-2.123-2.12-4.594-3.787-7.344-4.951C55.686,27.31,52.66,26.698,49.541,26.698z M49.541,59.348  c-5.266,0-9.549-4.283-9.549-9.549c0-5.267,4.283-9.551,9.549-9.551s9.549,4.284,9.549,9.551  C59.09,55.064,54.807,59.348,49.541,59.348z M49.541,42.596c-3.973,0-7.201,3.232-7.201,7.203c0,3.973,3.229,7.205,7.201,7.205  s7.203-3.232,7.203-7.205C56.744,45.828,53.514,42.596,49.541,42.596z M22.543,67.158c0-0.872-0.475-1.633-1.18-2.042v-0.2  c0-0.646-0.523-1.174-1.172-1.174s-1.172,0.525-1.172,1.174v0.193c-0.713,0.406-1.193,1.172-1.193,2.049  c0,0.875,0.48,1.641,1.193,2.049v3.02c0,0.646,0.523,1.172,1.172,1.172s1.172-0.524,1.172-1.172V69.2  C22.068,68.79,22.543,68.029,22.543,67.158z M49.541,51.085c-0.709,0-1.285-0.578-1.285-1.286s0.578-1.285,1.285-1.285  c0.709,0,1.285,0.577,1.285,1.285S50.25,51.085,49.541,51.085z M80.949,33.681c0-1.85-1.23-3.417-2.916-3.927v-2.681  c0-0.647-0.525-1.172-1.174-1.172c-0.646,0-1.172,0.524-1.172,1.172v2.673c-1.699,0.501-2.943,2.076-2.943,3.935  c0,1.859,1.244,3.433,2.943,3.936v23.285l-2.99,5.212c-0.32,0.562-0.127,1.278,0.436,1.601c0.184,0.105,0.385,0.156,0.582,0.156  c0.406,0,0.801-0.212,1.02-0.59l3.145-5.482c0.102-0.179,0.156-0.38,0.156-0.583V37.607C79.719,37.099,80.949,35.531,80.949,33.681z   M76.848,35.438c-0.969,0-1.758-0.788-1.758-1.757c0-0.968,0.789-1.757,1.758-1.757s1.758,0.789,1.758,1.757  C78.604,34.649,77.816,35.438,76.848,35.438z"/><text x="0" y="115" fill="#000000" font-size="5px" font-weight="bold" font-family="'Helvetica Neue', Helvetica, Arial-Unicode, Arial, Sans-serif">Created by Simon Child</text><text x="0" y="120" fill="#000000" font-size="5px" font-weight="bold" font-family="'Helvetica Neue', Helvetica, Arial-Unicode, Arial, Sans-serif">from the Noun Project</text></svg>